<?xml version="1.0" encoding="utf-8"?>
<!-- Generator: Adobe Illustrator 19.0.0, SVG Export Plug-In . SVG Version: 6.00 Build 0)  -->
<svg version="1.1" id="Layer_1" xmlns="http://www.w3.org/2000/svg" xmlns:xlink="http://www.w3.org/1999/xlink" x="0px" y="0px"
	 viewBox="0 0 524.6 241.1" style="enable-background:new 0 0 524.6 241.1;" xml:space="preserve">
<style type="text/css">
	.st0{fill:url(#SVGID_1_);}
	.st1{fill:#FFFFFF;}
	.st2{fill:url(#SVGID_2_);}
	.st3{fill:url(#SVGID_3_);}
	.st4{fill:url(#SVGID_4_);}
</style>
<g>
	<linearGradient id="SVGID_1_" gradientUnits="userSpaceOnUse" x1="0" y1="120.5382" x2="524.6327" y2="120.5382">
		<stop  offset="0" style="stop-color:#00AEEF"/>
		<stop  offset="1" style="stop-color:#2B3990"/>
	</linearGradient>
	<path class="st0" d="M2.1,88.7C45,26.7,103.8-3.1,179.3,0.3C251.7,3.5,310.5,35.8,362,84.1c5,4.7,9.9,9.4,14.8,14.1
		c22.3-18.9,43.5-37.3,65.3-55c22.4-18.3,47.1-27.6,76-15.5c1.2,0.5,2.4,1.1,3.5,1.8c0.7,0.4,1.3,1.1,3.1,2.8
		c-56.3,9.5-88.7,51.2-126.3,88.3c37.2,36.6,69.3,77.7,124.1,87.8c-17.1,12.9-44.6,14.2-64.6,0c-22.9-16.3-44-35.2-65.7-53.1
		c-4.7-3.8-8.9-8.2-13.4-12.4c-18.7,15.5-36,31.8-55.1,45.5c-62,44.7-130.6,63.5-206.4,46.6C66.4,223.6,28.4,192.7,0,149.6
		c8.9,8,17.4,16.6,26.9,23.8c75.9,57.8,156.1,54.1,237.7,14.5c34-16.5,63.4-40,90.1-67.7C297.5,64,233.1,24.8,150.4,24
		C95.7,23.5,50.1,44.6,10.7,81c-2.2,2.1-4.3,4.3-6.5,6.4C3.7,88,2.8,88.3,2.1,88.7z"/>
	<g>
		<path class="st1" d="M150.2,200c-37.8-16.7-69.2-36.9-69.6-79.3c-0.4-43.3,32.3-63.1,68.4-79.9C107,28.6,26.9,66.5,30.4,120.3
			c3.9,1.4,8,2.8,15.1,5.3c-7,2.2-11,3.4-15.1,4.6C41.2,175.5,102.2,212.7,150.2,200z M222.6,66.6c-25.6-1.7-47.5,6-64.8,24.3
			c-9.7,10.3-14.1,23-10.6,37.6c5.8,24.6,24.2,36,46,43c9,2.9,18.8,3.1,28.3,4.6c0.3-1.1,0.6-2.3,0.9-3.4
			c-23-10.7-42.9-24.1-42.7-52.8C179.8,91,200.7,78.6,222.6,66.6z"/>
		<linearGradient id="SVGID_2_" gradientUnits="userSpaceOnUse" x1="30.2777" y1="120.5382" x2="150.1862" y2="120.5382">
			<stop  offset="0" style="stop-color:#00AEEF"/>
			<stop  offset="1" style="stop-color:#2B3990"/>
		</linearGradient>
		<path class="st2" d="M150.2,200c-48,12.7-109-24.6-119.8-69.7c4-1.2,8.1-2.5,15.1-4.6c-7-2.5-11.1-3.9-15.1-5.3
			C26.9,66.5,107,28.6,149,40.9c-36.1,16.8-68.7,36.5-68.4,79.9C81,163.1,112.4,183.3,150.2,200z M55.7,101.4
			c-4.3-4-7.2-8.5-9.1-8.1c-3.2,0.6-7,4-8.1,7.1c-0.6,1.7,3.6,7.3,5.8,7.3C47.4,107.8,50.6,104.5,55.7,101.4z"/>
		<linearGradient id="SVGID_3_" gradientUnits="userSpaceOnUse" x1="146.0061" y1="121.1766" x2="222.5666" y2="121.1766">
			<stop  offset="0" style="stop-color:#00AEEF"/>
			<stop  offset="1" style="stop-color:#2B3990"/>
		</linearGradient>
		<path class="st3" d="M222.6,66.6c-21.9,12-42.8,24.5-43,53.2c-0.1,28.7,19.8,42.1,42.7,52.8c-0.3,1.1-0.6,2.3-0.9,3.4
			c-9.4-1.5-19.3-1.7-28.3-4.6c-21.8-7-40.2-18.4-46-43c-3.4-14.6,0.9-27.3,10.6-37.6C175.1,72.6,197,64.9,222.6,66.6z"/>
		<path class="st1" d="M55.7,101.4c-5.1,3-8.3,6.4-11.4,6.3c-2.2-0.1-6.4-5.7-5.8-7.3c1.1-3.1,4.9-6.5,8.1-7.1
			C48.5,92.9,51.5,97.5,55.7,101.4z"/>
		<linearGradient id="SVGID_4_" gradientUnits="userSpaceOnUse" x1="97.3959" y1="121.1795" x2="171.6672" y2="121.1795">
			<stop  offset="0" style="stop-color:#00AEEF"/>
			<stop  offset="1" style="stop-color:#2B3990"/>
		</linearGradient>
		<path class="st4" d="M171.7,66.3c0,0-103.1,8.7-66.3,79c0,0,20.1,31.1,66.3,30.6C171.7,176,77.3,124,171.7,66.3z"/>
	</g>
</g>
</svg>
